HIERARCHY
ROOT mixamorig:Hips
{
	OFFSET 0.000000 201.639420 0.000000
	CHANNELS 6 Xposition Yposition Zposition Xrotation Yrotation Zrotation
	JOINT mixamorig:Spine
	{
		OFFSET 0.006200 19.524994 -2.481800
		CHANNELS 3 Xrotation Yrotation Zrotation
		JOINT mixamorig:Spine1
		{
			OFFSET -0.000900 22.835007 -2.825400
			CHANNELS 3 Xrotation Yrotation Zrotation
			JOINT mixamorig:Spine2
			{
				OFFSET -0.020600 26.552490 -3.193300
				CHANNELS 3 Xrotation Yrotation Zrotation
				JOINT mixamorig:Neck
				{
					OFFSET -0.060000 30.701813 1.352200
					CHANNELS 3 Xrotation Yrotation Zrotation
					JOINT mixamorig:Head
					{
						OFFSET -0.087200 22.547607 3.670900
						CHANNELS 3 Xrotation Yrotation Zrotation
						JOINT mixamorig:HeadTop_End
						{
							OFFSET -0.830600 40.355194 7.893500
							CHANNELS 3 Xrotation Yrotation Zrotation
							End Site
							{
								OFFSET 0.000000 30.592346 0.000000
							}
						}
						JOINT mixamorig:RightEye
						{
							OFFSET -6.302100 18.118591 16.197100
							CHANNELS 3 Xrotation Yrotation Zrotation
							End Site
							{
								OFFSET 0.000000 30.592346 0.000000
							}
						}
						JOINT mixamorig:LeftEye
						{
							OFFSET 6.741500 18.382690 16.401899
							CHANNELS 3 Xrotation Yrotation Zrotation
							End Site
							{
								OFFSET 0.000000 30.592346 0.000000
							}
						}
					}
				}
				JOINT mixamorig:LeftShoulder
				{
					OFFSET 11.924900 18.230499 1.425400
					CHANNELS 3 Xrotation Yrotation Zrotation
					JOINT mixamorig:LeftArm
					{
						OFFSET 25.435989 -0.697632 -5.229300
						CHANNELS 3 Xrotation Yrotation Zrotation
						JOINT mixamorig:LeftForeArm
						{
							OFFSET 54.684776 0.000000 0.000000
							CHANNELS 3 Xrotation Yrotation Zrotation
							JOINT mixamorig:LeftHand
							{
								OFFSET 55.098175 0.000000 0.000000
								CHANNELS 3 Xrotation Yrotation Zrotation
								JOINT mixamorig:LeftHandMiddle1
								{
									OFFSET 23.369751 0.000000 0.000000
									CHANNELS 3 Xrotation Yrotation Zrotation
									JOINT mixamorig:LeftHandMiddle2
									{
										OFFSET 6.378677 0.000000 0.000000
										CHANNELS 3 Xrotation Yrotation Zrotation
										JOINT mixamorig:LeftHandMiddle3
										{
											OFFSET 6.148331 0.000000 0.000000
											CHANNELS 3 Xrotation Yrotation Zrotation
											JOINT mixamorig:LeftHandMiddle4
											{
												OFFSET 6.582504 0.000000 0.000000
												CHANNELS 3 Xrotation Yrotation Zrotation
												End Site
												{
													OFFSET -1.168900 6.395691 1.028606
												}
											}
										}
									}
								}
								JOINT mixamorig:LeftHandThumb1
								{
									OFFSET 7.235672 -3.848206 5.434273
									CHANNELS 3 Xrotation Yrotation Zrotation
									JOINT mixamorig:LeftHandThumb2
									{
										OFFSET 6.568451 -3.792297 3.792300
										CHANNELS 3 Xrotation Yrotation Zrotation
										JOINT mixamorig:LeftHandThumb3
										{
											OFFSET 6.063080 -3.500519 3.500518
											CHANNELS 3 Xrotation Yrotation Zrotation
											JOINT mixamorig:LeftHandThumb4
											{
												OFFSET 4.793182 -2.767334 2.767349
												CHANNELS 3 Xrotation Yrotation Zrotation
												End Site
												{
													OFFSET 0.101639 6.054260 1.275483
												}
											}
										}
									}
								}
								JOINT mixamorig:LeftHandIndex1
								{
									OFFSET 23.101074 -0.309540 4.992809
									CHANNELS 3 Xrotation Yrotation Zrotation
									JOINT mixamorig:LeftHandIndex2
									{
										OFFSET 6.226883 0.000000 0.000000
										CHANNELS 3 Xrotation Yrotation Zrotation
										JOINT mixamorig:LeftHandIndex3
										{
											OFFSET 6.094330 0.000000 0.000000
											CHANNELS 3 Xrotation Yrotation Zrotation
											JOINT mixamorig:LeftHandIndex4
											{
												OFFSET 5.482605 0.000000 0.000000
												CHANNELS 3 Xrotation Yrotation Zrotation
												End Site
												{
													OFFSET -1.427902 5.233032 0.797164
												}
											}
										}
									}
								}
								JOINT mixamorig:LeftHandRing1
								{
									OFFSET 22.299240 0.021149 -3.964172
									CHANNELS 3 Xrotation Yrotation Zrotation
									JOINT mixamorig:LeftHandRing2
									{
										OFFSET 6.321869 0.000000 0.000000
										CHANNELS 3 Xrotation Yrotation Zrotation
										JOINT mixamorig:LeftHandRing3
										{
											OFFSET 5.899796 0.000000 0.000000
											CHANNELS 3 Xrotation Yrotation Zrotation
											JOINT mixamorig:LeftHandRing4
											{
												OFFSET 6.517899 0.000000 0.000000
												CHANNELS 3 Xrotation Yrotation Zrotation
												End Site
												{
													OFFSET -1.637299 6.232208 0.980890
												}
											}
										}
									}
								}
								JOINT mixamorig:LeftHandPinky1
								{
									OFFSET 20.463791 -0.302338 -8.562233
									CHANNELS 3 Xrotation Yrotation Zrotation
									JOINT mixamorig:LeftHandPinky2
									{
										OFFSET 6.908646 0.000000 0.000000
										CHANNELS 3 Xrotation Yrotation Zrotation
										JOINT mixamorig:LeftHandPinky3
										{
											OFFSET 4.622849 0.000000 0.000000
											CHANNELS 3 Xrotation Yrotation Zrotation
											JOINT mixamorig:LeftHandPinky4
											{
												OFFSET 5.216080 0.000000 0.000000
												CHANNELS 3 Xrotation Yrotation Zrotation
												End Site
												{
													OFFSET -0.606308 5.116241 0.814926
												}
											}
										}
									}
								}
							}
						}
					}
				}
				JOINT mixamorig:RightShoulder
				{
					OFFSET -12.001300 18.284088 1.348900
					CHANNELS 3 Xrotation Yrotation Zrotation
					JOINT mixamorig:RightArm
					{
						OFFSET -25.308500 -0.751312 -5.164599
						CHANNELS 3 Xrotation Yrotation Zrotation
						JOINT mixamorig:RightForeArm
						{
							OFFSET -54.684429 0.000000 0.000000
							CHANNELS 3 Xrotation Yrotation Zrotation
							JOINT mixamorig:RightHand
							{
								OFFSET -55.150291 0.000000 0.000000
								CHANNELS 3 Xrotation Yrotation Zrotation
								JOINT mixamorig:RightHandMiddle1
								{
									OFFSET -23.317566 0.000000 0.000000
									CHANNELS 3 Xrotation Yrotation Zrotation
									JOINT mixamorig:RightHandMiddle2
									{
										OFFSET -6.378403 0.000000 0.000000
										CHANNELS 3 Xrotation Yrotation Zrotation
										JOINT mixamorig:RightHandMiddle3
										{
											OFFSET -6.148193 0.000000 0.000000
											CHANNELS 3 Xrotation Yrotation Zrotation
											JOINT mixamorig:RightHandMiddle4
											{
												OFFSET -6.583389 0.000000 0.000000
												CHANNELS 3 Xrotation Yrotation Zrotation
												End Site
												{
													OFFSET 1.171692 6.395905 1.029786
												}
											}
										}
									}
								}
								JOINT mixamorig:RightHandThumb1
								{
									OFFSET -7.190521 -3.860474 5.435846
									CHANNELS 3 Xrotation Yrotation Zrotation
									JOINT mixamorig:RightHandThumb2
									{
										OFFSET -6.567429 -3.791718 3.791708
										CHANNELS 3 Xrotation Yrotation Zrotation
										JOINT mixamorig:RightHandThumb3
										{
											OFFSET -6.062469 -3.500153 3.500166
											CHANNELS 3 Xrotation Yrotation Zrotation
											JOINT mixamorig:RightHandThumb4
											{
												OFFSET -4.792618 -2.767029 2.767022
												CHANNELS 3 Xrotation Yrotation Zrotation
												End Site
												{
													OFFSET -0.100327 6.053253 1.276754
												}
											}
										}
									}
								}
								JOINT mixamorig:RightHandIndex1
								{
									OFFSET -23.048981 -0.310791 4.992554
									CHANNELS 3 Xrotation Yrotation Zrotation
									JOINT mixamorig:RightHandIndex2
									{
										OFFSET -6.227539 0.000000 0.000000
										CHANNELS 3 Xrotation Yrotation Zrotation
										JOINT mixamorig:RightHandIndex3
										{
											OFFSET -6.095047 0.000000 0.000000
											CHANNELS 3 Xrotation Yrotation Zrotation
											JOINT mixamorig:RightHandIndex4
											{
												OFFSET -5.484772 0.000000 0.000000
												CHANNELS 3 Xrotation Yrotation Zrotation
												End Site
												{
													OFFSET 1.420593 5.237305 0.797056
												}
											}
										}
									}
								}
								JOINT mixamorig:RightHandRing1
								{
									OFFSET -22.246323 0.020569 -3.963762
									CHANNELS 3 Xrotation Yrotation Zrotation
									JOINT mixamorig:RightHandRing2
									{
										OFFSET -6.322128 0.000000 0.000000
										CHANNELS 3 Xrotation Yrotation Zrotation
										JOINT mixamorig:RightHandRing3
										{
											OFFSET -5.900024 0.000000 0.000000
											CHANNELS 3 Xrotation Yrotation Zrotation
											JOINT mixamorig:RightHandRing4
											{
												OFFSET -6.518356 0.000000 0.000000
												CHANNELS 3 Xrotation Yrotation Zrotation
												End Site
												{
													OFFSET 1.636398 6.232697 0.982186
												}
											}
										}
									}
								}
								JOINT mixamorig:RightHandPinky1
								{
									OFFSET -20.411011 -0.303314 -8.561701
									CHANNELS 3 Xrotation Yrotation Zrotation
									JOINT mixamorig:RightHandPinky2
									{
										OFFSET -6.907349 0.000000 0.000000
										CHANNELS 3 Xrotation Yrotation Zrotation
										JOINT mixamorig:RightHandPinky3
										{
											OFFSET -4.623840 0.000000 0.000000
											CHANNELS 3 Xrotation Yrotation Zrotation
											JOINT mixamorig:RightHandPinky4
											{
												OFFSET -5.218353 0.000000 0.000000
												CHANNELS 3 Xrotation Yrotation Zrotation
												End Site
												{
													OFFSET 0.602097 5.118835 0.816273
												}
											}
										}
									}
								}
							}
						}
					}
				}
			}
		}
	}
	JOINT mixamorig:LeftUpLeg
	{
		OFFSET 18.168400 -13.561905 -0.039000
		CHANNELS 3 Xrotation Yrotation Zrotation
		JOINT mixamorig:LeftLeg
		{
			OFFSET 0.577358 -80.825211 -3.695000
			CHANNELS 3 Xrotation Yrotation Zrotation
			JOINT mixamorig:LeftFoot
			{
				OFFSET -0.577356 -83.370262 -6.520700
				CHANNELS 3 Xrotation Yrotation Zrotation
				JOINT mixamorig:LeftToeBase
				{
					OFFSET 0.750401 -20.798306 25.135401
					CHANNELS 3 Xrotation Yrotation Zrotation
					JOINT mixamorig:LeftToe_End
					{
						OFFSET -0.000500 0.001200 19.917799
						CHANNELS 3 Xrotation Yrotation Zrotation
						End Site
						{
							OFFSET 0.000000 19.917805 0.000000
						}
					}
				}
			}
		}
	}
	JOINT mixamorig:RightUpLeg
	{
		OFFSET -18.162500 -13.585098 -0.041000
		CHANNELS 3 Xrotation Yrotation Zrotation
		JOINT mixamorig:RightLeg
		{
			OFFSET -0.595024 -80.945297 -3.631900
			CHANNELS 3 Xrotation Yrotation Zrotation
			JOINT mixamorig:RightFoot
			{
				OFFSET 0.595024 -83.218193 -6.561200
				CHANNELS 3 Xrotation Yrotation Zrotation
				JOINT mixamorig:RightToeBase
				{
					OFFSET -0.753601 -20.807106 25.115000
					CHANNELS 3 Xrotation Yrotation Zrotation
					JOINT mixamorig:RightToe_End
					{
						OFFSET 0.000299 0.001700 19.918200
						CHANNELS 3 Xrotation Yrotation Zrotation
						End Site
						{
							OFFSET 0.000000 19.918203 0.000000
						}
					}
				}
			}
		}
	}
}
MOTION
Frames: 4
Frame Time: 0.033333
-1.341753 195.313461 -0.468475 -5.352059 -7.661945 6.364478 0.578198 0.921185 -3.567537 0.947294 2.037201 -4.377106 0.968933 2.043659 -4.365421 2.884317 1.135687 4.005909 7.888285 9.350190 8.465891 -0.000000 0.000000 -0.000000 -0.000000 0.000000 -0.000000 -0.000000 0.000000 -0.000000 1.058071 -0.340530 -4.891288 -16.372110 12.814410 -32.934014 0.000002 -24.507081 -0.000000 42.987582 -10.562023 -4.600046 -0.000000 -0.001926 0.015976 0.000001 0.001928 -0.015981 0.000003 0.000003 0.000003 0.000001 -0.000002 0.000000 -1.540047 3.690189 6.142337 3.946751 7.971410 0.752855 -0.575597 1.586248 2.542369 0.000001 -0.000000 -0.000001 0.000008 -0.000006 -0.000015 -0.000005 0.000009 -0.000043 0.000003 -0.000010 0.000002 0.000001 -0.000000 -0.000003 -0.000001 0.000006 -0.000010 0.000004 -0.000007 -0.000009 -0.000001 0.000009 0.000008 0.000000 0.000001 0.000002 -0.018083 4.054247 0.511056 -0.018088 -4.054247 -0.511064 -0.000001 -0.000006 -0.000006 0.000000 -0.000002 0.000000 0.199127 -5.464830 5.846317 -40.201209 28.677454 7.199775 -0.000008 4.457080 -0.000000 36.569024 21.327747 -11.047056 0.007122 0.315394 -2.588943 0.000002 -0.000002 0.000145 0.000007 0.000007 0.000002 -0.000001 0.000001 -0.000004 -1.908788 1.147423 -8.502732 4.645037 -8.656802 -0.231323 -1.269826 0.126061 -2.098682 0.000000 0.000001 0.000004 0.007130 0.315402 -2.588955 0.000003 -0.000000 0.000014 0.000000 -0.000003 0.000008 0.000003 0.000004 -0.000003 0.007127 0.315405 -2.588952 0.000002 -0.000003 0.000019 -0.000002 0.000004 0.000006 0.000002 -0.000001 -0.000000 0.007125 0.315401 -2.588947 -0.000002 0.000002 0.000165 -0.000003 -0.000008 0.000003 -0.000001 -0.000005 0.000002 -28.959162 6.723553 10.409303 23.196707 8.678958 0.734733 30.272932 9.168646 1.346279 -6.098039 -0.000003 -0.000006 0.000001 0.000001 -0.000001 -10.871175 -8.682301 12.774185 17.779539 -9.484355 -1.071869 -5.469850 -14.805116 -21.328451 -3.611932 -0.000013 -0.000003 0.000000 0.000000 0.000000 
-1.572397 195.916443 3.000299 -5.660208 -13.385950 7.456412 0.838707 1.262387 -4.189153 1.347463 2.954031 -4.728092 1.376509 2.966287 -4.709483 2.586427 1.460513 3.753750 7.045165 10.686165 8.068202 -0.000000 -0.000000 -0.000000 -0.000000 -0.000000 -0.000000 -0.000000 -0.000000 -0.000000 0.759831 0.946252 -2.855796 -19.423093 10.354103 -26.756701 0.000010 -27.022769 0.000014 42.217232 -6.568969 -9.283820 0.000000 -0.001927 0.015975 0.000000 0.001925 -0.015981 0.000005 0.000006 0.000003 0.000004 -0.000005 -0.000000 -1.540049 3.690188 6.142336 3.946754 7.971407 0.752861 -0.575595 1.586245 2.542368 -0.000001 -0.000001 -0.000001 0.000008 -0.000004 -0.000012 -0.000005 0.000012 -0.000046 0.000004 -0.000005 -0.000000 0.000002 -0.000001 -0.000003 -0.000003 0.000006 -0.000004 0.000002 -0.000011 -0.000005 -0.000001 0.000006 0.000009 -0.000000 -0.000000 -0.000002 -0.018084 4.054247 0.511061 -0.018089 -4.054244 -0.511062 -0.000005 -0.000004 -0.000008 0.000000 0.000001 0.000001 0.212464 -5.232912 5.754966 -42.717731 34.101676 8.553413 -0.000002 4.066454 0.000003 36.309859 14.051908 -11.056524 0.002593 0.190459 -1.562965 0.000001 0.000000 0.000140 0.000006 0.000006 -0.000001 -0.000004 0.000003 0.000000 -1.951331 -0.727919 -7.741108 4.645034 -8.656796 -0.231326 -1.269824 0.126059 -2.098681 -0.000002 0.000001 0.000000 0.002594 0.190456 -1.562967 0.000003 -0.000000 0.000013 -0.000002 -0.000007 0.000007 0.000001 0.000000 0.000001 0.002597 0.190452 -1.562965 0.000003 -0.000007 0.000013 0.000000 -0.000002 0.000004 0.000002 0.000000 0.000001 0.002594 0.190449 -1.562958 -0.000002 -0.000005 0.000165 -0.000000 -0.000013 0.000005 0.000002 -0.000002 -0.000005 -31.751579 7.193477 6.771990 24.790252 8.959638 0.751159 30.665022 6.953190 -3.360108 -1.990894 0.000012 -0.000001 0.000000 0.000001 0.000000 -9.697285 -8.272724 11.247057 21.021767 -9.431651 -0.922614 -7.270689 -11.862346 -18.503855 -4.086936 -0.000009 -0.000002 -0.000000 -0.000002 0.000000 
-1.982447 196.522293 6.385771 -6.043124 -18.845998 8.104619 1.115452 1.669195 -4.687621 1.773092 4.010574 -4.973197 1.808628 4.029044 -4.945629 2.397946 1.708200 3.501707 6.370059 11.634762 7.710863 0.000000 -0.000000 -0.000001 0.000000 -0.000000 -0.000001 0.000000 -0.000000 -0.000001 0.381282 2.219536 -0.839926 -21.712470 7.736415 -20.923518 0.000006 -27.342972 0.000001 42.550183 -3.886018 -15.132501 0.000000 -0.001921 0.015975 -0.000005 0.001931 -0.015979 0.000005 0.000004 0.000005 -0.000000 -0.000003 -0.000002 -1.540046 3.690188 6.142340 3.946760 7.971406 0.752860 -0.575595 1.586245 2.542367 0.000002 -0.000001 0.000000 0.000006 -0.000001 -0.000012 -0.000001 0.000009 -0.000048 0.000002 -0.000004 0.000003 0.000000 -0.000000 0.000001 -0.000004 0.000011 -0.000007 0.000001 -0.000011 -0.000007 -0.000003 0.000014 0.000011 -0.000002 -0.000002 -0.000001 -0.018085 4.054250 0.511064 -0.018091 -4.054241 -0.511060 -0.000001 -0.000009 -0.000007 0.000001 -0.000003 0.000000 0.214950 -5.030965 5.552296 -45.060547 39.401363 9.664945 -0.000021 3.814356 -0.000002 35.313478 6.700697 -9.998906 0.000447 0.079073 -0.648889 -0.000002 -0.000001 0.000140 0.000008 0.000007 0.000004 0.000001 0.000000 0.000004 -1.915922 -2.397937 -7.065410 4.645037 -8.656805 -0.231318 -1.269825 0.126061 -2.098679 0.000000 -0.000001 0.000000 0.000448 0.079073 -0.648888 0.000003 0.000000 0.000008 0.000001 -0.000004 0.000012 -0.000001 -0.000003 -0.000002 0.000448 0.079065 -0.648889 -0.000002 -0.000001 0.000019 0.000001 -0.000002 0.000006 0.000001 0.000004 -0.000003 0.000452 0.079076 -0.648892 -0.000002 -0.000000 0.000164 -0.000000 -0.000007 0.000006 0.000000 0.000001 -0.000001 -34.309567 8.218071 2.778642 26.315261 9.329597 0.825107 32.030882 6.437244 -7.884850 -0.428772 -0.000006 -0.000000 0.000000 0.000001 0.000000 -8.417056 -8.082036 9.797164 24.125975 -9.383450 -0.777181 -8.748045 -9.361962 -15.580252 -4.480648 -0.000010 -0.000002 0.000000 -0.000002 0.000000 
-3.160065 197.141403 9.343430 -6.563242 -23.473238 7.634231 1.441287 2.283700 -4.956988 2.279010 5.485551 -4.931816 2.319534 5.510799 -4.889829 2.478941 1.738179 3.196408 6.189208 11.413916 7.464250 -0.000001 -0.000000 -0.000000 -0.000001 -0.000000 -0.000000 -0.000001 -0.000000 -0.000000 -0.044667 3.445866 1.104502 -23.267045 5.477991 -15.404052 0.000007 -25.135953 -0.000002 43.384392 -4.108109 -20.832067 -0.000000 -0.001928 0.015977 -0.000001 0.001928 -0.015980 0.000003 -0.000000 0.000004 -0.000000 0.000002 0.000001 -1.540047 3.690182 6.142337 3.946751 7.971411 0.752862 -0.575596 1.586242 2.542369 0.000001 0.000001 0.000002 0.000005 -0.000006 -0.000011 -0.000006 0.000009 -0.000044 0.000004 -0.000004 -0.000000 -0.000000 -0.000001 0.000001 -0.000000 0.000002 -0.000008 -0.000001 -0.000008 -0.000006 -0.000001 0.000011 0.000013 -0.000003 -0.000001 -0.000000 -0.018085 4.054246 0.511060 -0.018089 -4.054247 -0.511062 -0.000001 -0.000006 -0.000008 -0.000001 -0.000001 -0.000000 0.202781 -4.901745 5.125540 -46.527208 44.320370 9.565514 -0.000007 4.013579 -0.000002 33.338160 -0.203630 -5.714775 0.000006 0.012008 -0.098540 -0.000003 0.000001 0.000143 0.000004 0.000009 -0.000002 0.000003 -0.000001 -0.000000 -1.861561 -3.402134 -6.658945 4.645034 -8.656803 -0.231319 -1.269825 0.126062 -2.098682 0.000000 -0.000001 0.000001 0.000010 0.012010 -0.098546 0.000002 -0.000002 0.000011 0.000000 -0.000004 0.000013 -0.000000 -0.000000 0.000002 0.000009 0.012010 -0.098543 0.000001 -0.000002 0.000016 -0.000001 0.000001 0.000003 -0.000002 -0.000001 0.000001 0.000011 0.012009 -0.098541 -0.000000 0.000003 0.000157 -0.000000 -0.000008 0.000006 0.000001 0.000002 -0.000002 -36.949363 10.269717 -1.655194 27.768025 9.703770 1.061478 35.391978 10.309688 -11.888762 -0.039626 -0.000004 -0.000004 -0.000001 0.000000 0.000000 -6.336741 -8.827185 9.365893 25.705174 -9.317548 -0.674159 -8.381966 -7.788351 -13.319677 -5.929075 -0.000003 -0.000002 0.000001 0.000001 -0.000000 
